<?xml version="1.0" standalone="no"?>
<!DOCTYPE svg PUBLIC "-//W3C//DTD SVG 20010904//EN"
 "http://www.w3.org/TR/2001/REC-SVG-20010904/DTD/svg10.dtd">
<svg version="1.0" xmlns="http://www.w3.org/2000/svg"
 width="1000.000000pt" height="1000.000000pt" viewBox="0 0 1000.000000 1000.000000"
 preserveAspectRatio="xMidYMid meet">

<g transform="translate(0.000000,1000.000000) scale(0.100000,-0.100000)"
fill="#000000" stroke="none">
<path d="M2423 9895 c-68 -19 -121 -53 -166 -106 -57 -66 -78 -134 -87 -284
-5 -72 -11 -142 -15 -157 l-7 -26 -41 23 c-77 43 -141 49 -269 26 -62 -11
-201 -29 -308 -41 -477 -51 -639 -83 -877 -170 -45 -16 -113 -34 -150 -40
-127 -20 -218 -84 -267 -189 -21 -45 -23 -93 -14 -266 1 -16 -4 -68 -11 -115
-7 -47 -16 -128 -21 -180 -5 -52 -18 -149 -30 -215 -12 -67 -22 -169 -23 -230
-2 -102 0 -114 25 -160 32 -60 107 -135 166 -164 111 -56 295 -70 547 -42 210
23 637 82 773 107 165 30 218 46 270 84 l39 28 -1 -216 -1 -217 28 -60 c51
-109 141 -180 260 -205 104 -21 224 19 303 102 80 83 104 165 104 352 0 293
56 904 130 1426 44 313 51 385 51 515 -1 183 -25 256 -113 342 -79 77 -192
107 -295 78z m147 -198 c67 -44 75 -73 74 -247 -1 -124 -9 -212 -42 -440 -22
-157 -46 -330 -52 -385 -39 -361 -51 -484 -64 -675 -8 -118 -18 -294 -22 -390
-8 -195 -17 -230 -76 -272 -44 -31 -134 -33 -174 -2 -64 47 -69 62 -72 225 -7
319 62 1030 149 1539 49 284 58 350 65 455 5 67 13 112 26 138 37 73 123 98
188 54z m-561 -512 c16 -8 41 -29 56 -47 24 -29 27 -38 23 -90 -7 -90 -52
-128 -181 -153 -65 -12 -135 -21 -462 -56 -132 -14 -129 -12 -106 -51 17 -28
19 -49 16 -148 -4 -149 -24 -464 -31 -512 -7 -44 -13 -43 111 -23 147 24 196
36 238 58 35 18 45 19 85 8 164 -44 178 -220 22 -285 -62 -25 -319 -69 -695
-117 -193 -25 -290 -33 -425 -33 -198 -1 -242 9 -299 68 -55 56 -55 69 -10
356 10 69 19 142 19 163 0 48 24 215 49 336 7 35 5 52 -10 87 -42 93 29 193
138 194 17 0 85 18 150 40 285 98 354 110 1003 185 74 8 151 19 170 24 54 14
108 12 139 -4z m46 -467 c-5 -26 -55 -445 -55 -468 0 -8 -12 -2 -32 17 -18 18
-60 45 -93 60 -52 24 -72 28 -150 28 -74 0 -97 -4 -132 -23 -72 -38 -77 -34
-68 56 4 42 11 122 14 177 l6 100 196 22 c107 12 220 28 250 36 72 20 70 20
64 -5z"/>
<path d="M975 8761 c-55 -16 -139 -40 -186 -55 -83 -26 -87 -29 -97 -64 -13
-43 -38 -248 -46 -372 -3 -47 -13 -123 -21 -169 -8 -47 -13 -86 -11 -88 4 -4
318 24 391 35 43 7 49 10 45 27 -9 40 13 385 29 450 6 22 11 72 11 111 0 39 7
90 15 113 14 40 14 41 -8 40 -12 0 -67 -13 -122 -28z m-91 -328 c-8 -185 -12
-210 -36 -216 -20 -6 -21 -3 -15 81 14 199 22 242 48 242 4 0 6 -48 3 -107z"/>
<path d="M1815 8467 l-60 -10 80 -23 c44 -13 83 -24 88 -24 4 0 7 16 7 35 0
40 -5 41 -115 22z"/>
<path d="M4410 9661 c-123 -38 -214 -148 -227 -275 l-5 -53 -56 34 c-31 18
-88 43 -127 54 -38 12 -97 31 -130 43 -52 18 -81 21 -215 20 -149 0 -158 -2
-238 -32 -159 -59 -351 -213 -449 -357 -224 -332 -228 -747 -7 -1028 132 -169
337 -246 624 -234 200 8 364 55 512 145 37 22 70 37 72 33 7 -10 12 -403 7
-541 -4 -143 15 -204 88 -279 88 -90 193 -123 309 -96 79 19 115 40 174 103
56 60 82 128 99 257 13 98 15 424 4 476 -6 26 -6 26 37 18 56 -11 163 -11 210
0 37 9 37 9 72 -49 41 -66 151 -173 217 -212 113 -66 318 -106 479 -93 247 19
437 97 591 242 l69 65 -1 -48 c0 -27 -4 -71 -9 -99 -17 -105 22 -227 96 -302
163 -163 432 -114 528 97 30 65 56 206 56 300 l0 67 58 16 57 16 35 -34 c48
-46 123 -91 184 -111 28 -9 54 -19 58 -23 4 -4 -2 -31 -13 -61 -15 -37 -23
-87 -26 -150 -22 -446 350 -716 877 -635 181 27 323 91 432 193 l67 64 6 -29
c46 -218 309 -315 487 -179 41 31 48 34 59 20 7 -9 36 -28 63 -42 45 -24 62
-27 146 -27 79 0 102 4 136 22 129 69 184 174 184 348 -1 126 -48 207 -155
263 -42 22 -63 26 -130 26 -91 0 -143 -20 -205 -80 l-36 -34 -34 36 c-61 63
-103 79 -205 79 -79 0 -95 -3 -135 -26 -25 -15 -54 -36 -64 -48 -27 -30 -33
-27 -38 23 -3 24 -19 71 -36 105 -17 33 -27 61 -23 61 5 0 29 19 54 43 43 40
50 43 108 44 118 4 224 82 270 202 17 42 22 79 23 146 0 80 -3 96 -29 148 -43
87 -127 160 -216 189 l-71 23 6 70 c10 114 31 614 29 685 -2 91 -35 172 -95
236 -66 70 -130 98 -228 98 -88 0 -145 -22 -210 -80 -75 -68 -109 -171 -110
-335 l0 -55 -69 70 c-39 39 -87 90 -107 114 -73 84 -192 132 -328 132 -103 0
-176 -19 -294 -76 -80 -39 -109 -60 -207 -155 -101 -98 -158 -169 -221 -276
l-19 -31 -3 166 c-4 319 -17 377 -101 461 -69 69 -111 85 -221 85 -110 0 -148
-14 -220 -86 -77 -77 -90 -119 -103 -350 l-12 -201 -29 42 c-67 97 -211 202
-316 232 -25 7 -67 25 -95 40 -74 41 -167 69 -228 69 -229 0 -567 -211 -725
-453 -46 -71 -100 -197 -117 -275 -8 -38 3 -38 -142 -6 l-83 19 0 205 c-1 329
-15 556 -40 622 -28 76 -116 160 -190 182 -56 17 -147 20 -190 7z m160 -199
c61 -46 62 -52 71 -430 4 -191 8 -401 9 -467 l0 -120 109 3 c79 3 123 0 158
-11 26 -9 74 -18 106 -22 178 -20 200 -239 28 -285 -50 -13 -120 -6 -201 20
-30 10 -88 21 -129 24 l-74 6 6 -102 c26 -403 15 -676 -30 -736 -51 -69 -125
-89 -190 -52 -76 42 -76 39 -80 439 -6 506 -2 1351 6 1517 6 113 12 148 27
175 38 66 124 85 184 41z m2373 -36 c59 -25 79 -57 88 -143 12 -119 10 -335
-6 -578 -20 -311 -25 -279 38 -293 28 -7 71 -16 95 -21 110 -21 167 -125 118
-218 -25 -50 -64 -65 -154 -61 -43 2 -85 8 -94 12 -17 8 -18 -3 -18 -147 0
-167 -19 -312 -48 -361 -60 -103 -201 -97 -253 11 -16 34 -20 54 -15 91 4 26
11 225 16 442 5 217 16 476 25 575 8 99 19 272 24 385 8 212 14 243 58 282 19
18 59 36 81 37 7 1 27 -5 45 -13z m1932 -46 c47 -45 59 -97 51 -238 -18 -357
-30 -685 -27 -774 l1 -38 56 0 c110 0 205 -44 239 -111 22 -41 19 -122 -5
-169 -38 -74 -107 -89 -183 -40 -65 41 -87 40 -87 -3 0 -19 -10 -53 -23 -77
-53 -101 -178 -106 -250 -9 -32 44 -49 296 -37 544 15 315 30 543 40 635 6 47
10 111 10 143 0 111 53 172 143 164 32 -3 56 -12 72 -27z m-5083 -91 c13 -7
52 -18 87 -26 148 -31 289 -140 355 -274 57 -117 79 -220 74 -353 -4 -97 -8
-120 -36 -186 -60 -141 -186 -272 -327 -343 -224 -111 -533 -124 -718 -30
-148 74 -252 278 -250 488 2 157 61 321 167 461 99 132 275 249 409 274 66 11
209 5 239 -11z m4259 -45 c64 -19 117 -56 125 -88 3 -13 25 -38 49 -55 129
-92 195 -245 195 -447 0 -138 -19 -227 -71 -334 -33 -69 -56 -100 -128 -171
-73 -73 -104 -95 -182 -132 -109 -52 -170 -67 -277 -67 -178 0 -317 78 -377
211 -63 141 -82 358 -45 505 41 159 113 277 252 410 97 94 150 127 251 160 86
28 135 30 208 8z m-2064 -91 c21 -10 57 -30 80 -45 23 -16 52 -28 65 -28 13 0
52 -14 87 -30 177 -84 311 -331 311 -572 0 -328 -177 -568 -495 -668 -99 -31
-303 -39 -408 -16 -163 36 -265 118 -337 268 -97 201 -95 481 4 683 88 178
298 349 506 412 82 25 126 24 187 -4z m2443 -1078 c0 -8 -7 -15 -16 -15 -14 0
-14 3 -4 15 7 8 14 15 16 15 2 0 4 -7 4 -15z m-76 -191 c105 -24 145 -43 171
-84 14 -22 36 -40 61 -49 136 -48 233 -169 234 -291 0 -200 -244 -351 -570
-353 -193 -2 -324 45 -422 151 -73 80 -102 159 -102 282 0 135 42 204 169 276
145 80 300 104 459 68z m944 -490 c54 -35 77 -144 46 -211 -42 -87 -169 -102
-219 -27 -27 42 -16 153 22 212 31 49 98 60 151 26z m473 6 c36 -20 51 -66 44
-134 -13 -106 -51 -149 -137 -150 -58 -1 -98 26 -116 80 -11 33 -11 45 4 82 9
25 35 64 59 88 36 38 47 44 84 44 23 0 51 -5 62 -10z"/>
<path d="M3592 9020 c-86 -20 -215 -138 -268 -245 -68 -138 -75 -259 -21 -364
39 -76 91 -100 219 -101 199 0 379 87 453 221 27 48 30 63 29 134 -2 179 -83
284 -244 315 -36 7 -79 21 -96 31 -17 11 -33 19 -35 18 -2 -1 -19 -5 -37 -9z
m200 -252 c4 -7 15 -35 23 -62 14 -47 14 -51 -8 -89 -14 -26 -40 -50 -74 -69
-60 -34 -189 -63 -238 -54 -48 9 -55 52 -24 149 19 60 32 82 79 128 l56 57 89
-24 c49 -13 92 -29 97 -36z"/>
<path d="M3566 8651 c-23 -43 -20 -61 8 -61 29 0 56 9 56 19 0 4 -11 22 -24
40 l-25 33 -15 -31z"/>
<path d="M7895 8966 c-53 -25 -168 -135 -216 -206 -83 -124 -98 -273 -43 -441
19 -60 48 -74 144 -67 125 9 254 97 305 210 48 105 54 253 15 345 -10 22 -49
73 -87 112 l-68 71 -50 -24z m45 -309 c0 -84 -30 -149 -88 -187 -25 -16 -49
-30 -54 -30 -4 0 -8 28 -8 63 0 74 29 144 86 207 35 39 39 40 51 24 7 -10 13
-44 13 -77z"/>
<path d="M5749 8831 c-128 -84 -193 -167 -224 -288 -39 -148 1 -359 80 -421
49 -39 184 -53 296 -32 72 14 167 59 216 103 136 123 149 381 28 540 -46 61
-105 93 -185 102 -36 4 -80 15 -98 26 -18 10 -34 19 -36 19 -1 0 -36 -22 -77
-49z m225 -187 c30 -10 70 -110 70 -175 -1 -87 -26 -127 -104 -166 -71 -36
-159 -51 -201 -35 -24 10 -28 19 -39 83 -21 121 9 212 91 282 38 33 40 34 101
25 35 -4 71 -11 82 -14z"/>
<path d="M5863 8439 c-51 -28 -73 -46 -73 -60 0 -14 7 -19 28 -18 27 1 73 15
105 35 18 10 37 84 21 84 -5 0 -42 -19 -81 -41z"/>
<path d="M8125 7621 c-37 -9 -94 -38 -118 -59 -19 -17 -17 -55 6 -100 45 -91
316 -103 480 -20 20 10 37 22 37 27 0 9 -146 101 -160 101 -5 0 -23 12 -41 27
-28 24 -42 28 -103 30 -39 1 -84 -2 -101 -6z"/>
<path d="M6407 9273 c-2 -5 15 -23 39 -40 l44 -33 0 40 c0 40 0 40 -39 40 -22
0 -42 -3 -44 -7z"/>
<path d="M5013 8972 l-93 -26 0 -92 0 -92 40 12 c22 6 44 16 48 21 15 17 111
205 104 204 -4 -1 -49 -13 -99 -27z"/>
<path d="M9190 8851 c0 -21 -3 -72 -6 -114 -6 -71 -6 -77 12 -77 49 0 190
-119 459 -386 121 -121 248 -243 283 -273 l62 -53 0 119 0 118 -223 226 c-227
231 -319 309 -489 417 l-98 61 0 -38z"/>
<path d="M2775 8126 c-11 -82 -5 -93 26 -59 l27 28 -23 43 -24 42 -6 -54z"/>
<path d="M2766 8009 c-6 -19 -26 -404 -26 -507 l0 -84 58 46 c31 26 137 106
234 179 98 73 177 134 178 137 0 3 -38 22 -85 44 -46 21 -102 54 -125 73 l-41
36 -46 -44 c-33 -32 -47 -40 -51 -30 -8 24 -73 145 -83 155 -5 6 -10 4 -13 -5z"/>
<path d="M5010 7843 c-52 -10 -60 -28 -60 -135 0 -54 2 -98 4 -98 11 0 168 86
192 105 l27 22 -44 56 c-45 57 -55 61 -119 50z"/>
<path d="M1775 7598 c-141 -34 -129 -24 -138 -103 -22 -196 38 -490 128 -627
21 -31 23 -42 15 -64 -11 -29 -5 -60 15 -84 11 -13 2 -30 -57 -110 -38 -52
-92 -133 -121 -179 -28 -47 -52 -80 -55 -73 -2 6 7 24 19 41 30 40 20 69 -45
134 -98 99 -128 200 -106 367 13 99 29 154 80 269 27 64 30 77 20 101 -6 16
-24 34 -40 40 -49 20 -79 -3 -128 -100 -57 -115 -79 -190 -92 -316 -20 -198
18 -328 130 -446 62 -65 62 -70 -12 -88 -40 -10 -56 -9 -105 6 -73 23 -189
100 -244 162 -124 140 -223 394 -236 602 -5 88 3 162 34 304 l6 29 -88 -6
c-48 -3 -90 -8 -92 -11 -9 -8 -22 -82 -33 -173 -33 -295 98 -682 302 -885 l67
-67 -31 -23 c-17 -13 -50 -41 -73 -64 -24 -23 -64 -59 -91 -80 -26 -21 -83
-81 -126 -132 -63 -75 -78 -100 -78 -126 0 -43 19 -60 165 -155 156 -102 176
-111 228 -111 56 0 88 23 227 164 57 58 108 106 113 106 10 0 -1 -43 -25 -102
-24 -57 -200 -225 -301 -286 -149 -92 -227 -121 -465 -172 -51 -10 -138 -33
-192 -50 -117 -36 -140 -57 -140 -130 0 -41 7 -57 61 -134 189 -271 389 -395
636 -396 71 0 195 19 245 39 25 10 27 8 42 -32 15 -40 36 -116 36 -128 0 -3
-14 -6 -31 -6 -18 0 -39 -9 -52 -22 -21 -20 -22 -33 -29 -234 -9 -296 -35
-515 -128 -1081 -7 -46 -16 -66 -41 -90 -52 -50 -326 -405 -393 -508 -26 -40
-15 -90 27 -122 39 -29 259 -110 371 -136 44 -10 120 -24 167 -31 71 -10 87
-15 95 -33 6 -15 23 -23 59 -29 43 -7 56 -5 102 18 29 14 57 34 63 45 13 25
13 73 -1 104 -10 22 -4 38 50 143 78 148 85 156 100 112 16 -49 51 -220 51
-250 0 -69 44 -119 102 -119 13 0 65 23 117 50 51 28 96 50 98 50 3 0 2 -12
-2 -27 -15 -63 -45 -293 -45 -356 0 -63 2 -71 29 -96 l29 -27 -66 -60 c-37
-33 -94 -81 -127 -106 -70 -53 -235 -220 -235 -237 0 -6 -82 -96 -182 -199
-349 -358 -437 -479 -474 -651 -45 -212 34 -388 244 -545 l87 -66 190 0 190 0
-85 46 c-303 163 -429 278 -455 415 -8 45 11 151 37 203 49 97 188 263 427
511 69 72 151 158 182 192 42 45 68 65 100 75 58 17 139 94 139 132 0 22 17
44 80 103 44 41 116 103 160 137 43 33 94 81 111 106 81 113 109 126 109 50 0
-30 -6 -39 -43 -62 -116 -74 -366 -327 -531 -540 -91 -118 -96 -127 -96 -175
0 -91 80 -195 222 -290 40 -27 74 -52 76 -57 4 -10 -102 -77 -208 -131 -48
-25 -99 -63 -141 -105 -56 -55 -69 -76 -89 -134 -41 -124 -28 -256 42 -409
l31 -67 298 0 299 0 0 50 c0 42 5 55 26 75 15 14 30 25 34 25 4 0 16 -33 26
-72 l19 -73 88 -3 c48 -1 87 -1 87 0 0 2 -9 28 -21 57 -35 94 -42 153 -23 202
24 65 27 94 14 119 -11 21 -10 22 6 16 45 -17 212 -18 322 -2 62 9 120 20 130
23 9 3 -18 -30 -60 -73 -86 -90 -100 -125 -74 -187 11 -27 33 -48 83 -80 126
-82 100 -77 417 -77 l285 0 30 63 c34 72 112 162 185 216 49 36 386 240 453
275 18 9 43 16 56 16 13 0 34 11 47 25 13 14 30 23 37 21 14 -6 97 17 153 41
110 48 288 99 300 87 5 -5 -5 -9 -26 -10 -25 0 -44 -10 -67 -32 -18 -18 -37
-32 -41 -32 -5 0 -23 -12 -41 -27 -19 -16 -55 -44 -80 -63 -32 -23 -56 -53
-74 -90 -15 -30 -52 -98 -82 -150 -62 -104 -179 -324 -179 -334 0 -3 49 -6
109 -6 l109 0 11 30 c5 17 14 30 18 30 5 0 21 11 36 25 21 21 27 35 27 69 0
31 6 48 20 61 12 11 35 45 52 78 22 40 49 72 89 103 31 24 72 62 90 85 44 56
113 99 159 99 26 0 43 7 59 24 24 26 88 46 144 46 l34 0 -5 -50 c-5 -54 -1
-57 38 -35 14 8 44 14 68 15 37 0 48 -5 77 -37 57 -62 46 -81 -23 -46 -51 26
-66 26 -206 0 -100 -19 -132 -66 -83 -121 18 -22 31 -26 82 -28 33 -1 80 1
105 6 60 9 73 0 58 -42 -10 -26 -9 -37 4 -64 l15 -33 -36 -1 c-54 -2 -156 -21
-180 -33 -11 -7 -24 -23 -27 -36 -18 -72 36 -111 140 -102 65 6 64 -3 -4 -27
-41 -14 16 -15 712 -16 l758 0 21 21 c18 18 20 28 15 63 -17 104 -18 138 -2
209 12 54 24 81 44 99 27 26 122 94 447 320 521 362 713 542 871 815 48 83 54
89 105 110 53 21 54 23 54 62 l0 40 35 -21 c142 -85 188 -124 244 -203 10 -15
38 -36 61 -46 53 -24 175 -150 283 -294 45 -60 82 -113 82 -118 0 -4 -16 -15
-35 -23 -41 -17 -43 -27 -12 -57 13 -13 21 -32 19 -45 -2 -15 8 -32 33 -54
l37 -32 -7 -65 c-9 -87 -45 -190 -91 -260 -51 -76 -314 -404 -377 -468 l-51
-53 124 1 125 0 145 180 c80 99 164 210 188 247 58 91 100 205 108 293 7 68 8
70 23 50 9 -11 30 -31 47 -43 243 -177 465 -379 619 -566 l100 -121 3 529 2
528 -70 71 c-61 61 -76 71 -106 71 -41 0 -84 -37 -84 -73 0 -13 13 -81 30
-153 33 -143 37 -205 16 -224 -27 -22 -163 -14 -245 14 -137 47 -208 108 -291
246 -69 117 -125 319 -119 431 1 19 -4 54 -10 79 -15 52 -8 106 20 163 22 43
161 185 375 383 89 83 128 127 152 172 35 66 72 101 136 133 22 12 76 55 119
97 l77 77 0 268 0 269 -170 255 -170 255 112 119 112 120 18 -23 c10 -13 35
-50 56 -82 l37 -60 3 137 c1 75 1 198 0 271 l-3 135 -120 -132 c-155 -170
-506 -527 -616 -628 l-86 -78 24 87 c13 48 34 162 47 253 14 98 31 179 42 200
20 38 24 116 10 214 -11 81 -23 110 -52 124 -23 10 -25 15 -19 59 4 26 14 79
23 117 22 93 21 287 -1 430 -92 575 -133 796 -192 1035 -18 74 -45 191 -60
259 -38 179 -68 274 -145 471 -37 96 -74 195 -80 220 -7 25 -14 48 -16 51 -3
5 -157 -46 -173 -58 -2 -2 10 -32 27 -67 54 -110 149 -357 176 -456 14 -52 39
-160 55 -240 16 -80 41 -190 54 -245 43 -169 113 -556 162 -882 15 -100 20
-244 10 -255 -3 -3 -31 -1 -63 4 -77 12 -178 62 -197 97 -24 48 -64 90 -144
150 -42 32 -107 87 -146 121 -38 34 -80 66 -92 71 -34 13 -55 52 -44 81 13 34
-11 97 -50 130 -18 15 -63 43 -102 62 -60 30 -84 50 -164 142 -109 126 -130
153 -290 379 -159 226 -180 257 -181 275 -1 27 -47 138 -64 157 -16 18 -14 32
47 268 36 138 65 260 65 272 0 54 -87 85 -123 45 -16 -17 -84 -239 -153 -502
-36 -132 -61 -198 -92 -232 -8 -10 -36 -58 -61 -108 l-47 -90 -74 61 c-169
139 -244 174 -274 127 -18 -29 5 -65 75 -115 85 -62 223 -173 227 -184 2 -5
-10 -36 -27 -69 -17 -33 -31 -68 -31 -78 0 -28 -44 -112 -111 -213 -35 -53
-86 -134 -112 -181 -134 -236 -418 -545 -630 -684 -38 -25 -87 -64 -109 -86
-37 -37 -148 -121 -288 -216 -50 -35 -153 -82 -254 -118 l-38 -14 7 28 c4 15
20 88 35 163 15 75 31 143 36 150 5 8 9 39 9 69 1 80 43 448 66 566 10 56 28
123 39 149 26 61 25 91 -5 120 -48 48 -92 29 -136 -58 -20 -39 -58 -88 -103
-132 -74 -73 -294 -250 -301 -243 -3 2 17 42 44 89 77 134 155 309 171 379 17
81 14 87 -27 41 -21 -23 -69 -63 -108 -89 -62 -42 -74 -56 -110 -125 -67 -129
-132 -237 -200 -332 -36 -49 -65 -100 -65 -113 0 -33 18 -62 43 -71 30 -11
-99 -26 -147 -17 -22 4 -36 2 -38 -5 -2 -6 -75 -24 -163 -40 l-160 -28 -17 21
c-10 11 -18 26 -18 34 0 23 43 61 90 79 25 9 56 27 70 39 14 13 54 39 90 59
184 101 387 258 477 369 63 78 103 145 103 174 0 35 -37 74 -72 74 -33 0 -47
-13 -166 -148 -125 -142 -301 -265 -589 -413 -192 -98 -207 -111 -196 -170 4
-23 -1 -26 -54 -43 -32 -10 -118 -43 -191 -72 -73 -30 -170 -62 -215 -70 -148
-28 -281 -65 -312 -88 -16 -12 -61 -30 -100 -39 -39 -10 -94 -34 -125 -54 -98
-65 -154 -95 -208 -113 -46 -15 -53 -16 -61 -2 -7 12 -14 13 -41 3 -18 -6 -53
-11 -78 -11 -42 0 -44 -1 -38 -25 5 -21 3 -25 -16 -25 -77 1 -196 53 -280 123
-86 71 -197 231 -198 285 0 9 24 12 88 12 48 0 139 7 202 15 63 8 138 18 165
21 28 3 83 17 123 31 84 30 116 61 109 107 -2 16 2 41 10 56 34 70 -44 123
-131 90 -25 -9 -26 -8 -26 22 0 25 3 29 12 20 7 -7 25 -12 42 -12 24 0 46 17
123 98 119 123 153 168 153 204 0 39 -32 68 -76 68 -32 0 -45 -10 -131 -100
-53 -55 -98 -99 -100 -97 -5 6 65 297 82 337 9 23 14 67 13 130 -2 78 5 122
34 245 20 83 48 181 62 219 14 37 26 71 26 75 0 15 -77 -133 -112 -219 -22
-52 -75 -167 -118 -255 -96 -197 -124 -270 -150 -377 -21 -91 -43 -275 -44
-378 -1 -93 -13 -106 -110 -119 -42 -6 -119 -11 -169 -11 -112 0 -157 -12
-202 -51 -66 -58 -67 -145 -4 -272 73 -145 215 -296 340 -362 77 -40 180 -69
284 -80 l70 -7 44 -106 c25 -59 58 -129 73 -157 43 -74 45 -78 58 -107 8 -16
38 -57 69 -93 45 -52 58 -63 65 -51 8 12 23 3 78 -46 l68 -60 0 -223 0 -222
-67 -57 c-150 -124 -195 -257 -140 -409 35 -95 129 -230 232 -332 84 -84 229
-195 254 -195 16 0 14 -8 -9 -32 -11 -12 -20 -24 -20 -27 0 -7 131 -81 185
-104 l40 -18 -3 -52 c-3 -46 2 -63 37 -132 36 -69 39 -80 27 -94 -28 -31 -28
-64 0 -116 33 -63 50 -122 59 -205 4 -35 12 -71 18 -80 23 -38 -73 -221 -141
-268 -52 -37 -139 -42 -181 -11 -44 33 -72 18 -140 -73 -151 -202 -356 -306
-680 -343 l-55 -6 60 45 c33 25 66 57 72 71 28 62 4 130 -55 153 -15 6 -122
34 -236 62 -334 82 -459 135 -576 247 l-55 53 25 27 c14 16 48 57 74 93 105
140 374 397 490 468 70 43 85 73 85 170 0 60 -11 123 -44 258 -65 267 -76 316
-76 345 0 15 -7 49 -16 77 l-17 51 27 32 c26 30 27 37 23 113 -4 75 -30 169
-65 233 -11 20 -9 20 46 -7 74 -38 218 -84 308 -100 57 -10 91 -10 169 0 122
15 140 23 159 72 21 52 20 80 -4 106 -25 26 -39 30 -150 37 -47 3 -111 8 -143
11 -36 4 -69 1 -87 -6 -38 -16 -97 3 -240 76 -273 139 -549 359 -723 576 -209
261 -423 861 -377 1054 20 84 -9 134 -77 134 -39 0 -62 -18 -87 -71 -26 -54
-75 -84 -178 -105 -173 -37 -324 8 -447 134 -72 73 -126 140 -119 147 2 2 99
29 215 59 220 57 283 83 411 167 93 61 307 266 354 339 19 30 54 84 76 120 31
47 42 75 42 103 0 24 8 50 23 70 34 46 62 104 80 167 23 78 140 270 277 455
37 50 70 102 73 116 4 15 59 81 122 147 l116 120 -58 17 c-62 18 -128 49 -154
71 -14 13 -18 11 -28 -13 -6 -15 -25 -36 -41 -45 -17 -9 -35 -29 -40 -43 -5
-14 -14 -25 -19 -25 -11 0 -64 134 -87 218 -19 73 -39 271 -30 305 5 23 10 26
36 20 l30 -5 0 71 c0 39 -1 70 -2 70 -2 -1 -39 -10 -83 -21z m-445 -1408 l55
0 -67 -60 c-37 -33 -70 -69 -73 -80 -3 -10 -14 -22 -25 -25 -10 -3 -68 -56
-128 -116 l-109 -111 -86 59 c-47 32 -86 61 -87 66 0 9 187 191 268 259 l64
54 66 -23 c37 -12 92 -23 122 -23z m6153 -216 c35 -45 38 -46 31 -19 -9 39 -5
35 102 -110 52 -72 78 -113 63 -104 -43 29 -152 94 -241 144 -95 54 -97 58
-62 127 8 15 14 37 14 50 1 22 2 22 28 -8 15 -17 44 -53 65 -80z m-49 -218
c61 -35 192 -114 291 -177 177 -112 183 -116 291 -239 60 -69 148 -174 194
-234 132 -172 287 -317 352 -332 18 -3 56 -26 85 -50 30 -23 76 -57 103 -75
28 -18 48 -34 47 -36 -2 -2 -24 4 -48 13 -24 8 -102 30 -174 49 -71 18 -172
45 -224 60 -51 15 -211 51 -355 81 -143 30 -310 65 -371 79 -130 29 -331 50
-412 42 -33 -2 -111 4 -182 14 -139 21 -197 24 -206 9 -6 -10 -95 -15 -95 -5
0 2 32 44 71 92 81 101 213 296 229 339 6 15 28 53 49 84 20 30 55 84 76 120
21 36 50 79 65 96 14 17 37 56 49 88 18 42 28 56 39 51 8 -3 65 -34 126 -69z
m-1959 -749 c-8 -69 -15 -127 -15 -130 0 -3 -19 0 -42 5 -24 6 -92 8 -152 5
-60 -3 -105 -2 -100 2 5 4 54 42 109 84 55 42 125 96 155 121 30 24 56 43 58
41 2 -1 -4 -59 -13 -128z m1085 -325 c10 -90 28 -125 73 -149 26 -13 61 -14
252 -8 239 8 398 0 392 -19 -2 -7 -49 -13 -128 -16 -111 -4 -130 -8 -180 -34
-114 -57 -248 -230 -318 -409 -49 -126 -76 -253 -67 -316 4 -25 10 -98 14
-161 7 -105 12 -123 49 -207 52 -118 133 -240 223 -336 82 -87 146 -131 233
-159 119 -39 384 -21 543 35 l40 15 22 -89 c28 -113 75 -210 129 -266 45 -46
150 -102 193 -104 64 -2 63 -11 -2 -75 -92 -89 -290 -253 -361 -299 -51 -32
-74 -40 -132 -46 -62 -6 -72 -10 -96 -38 -31 -38 -66 -48 -302 -92 -357 -65
-750 -121 -971 -139 -200 -16 -701 -13 -835 5 -62 8 -129 19 -150 24 -20 5
-63 10 -96 10 -100 0 -603 90 -875 158 -88 21 -311 103 -420 154 -62 29 -90
47 -94 63 -8 30 -56 78 -179 178 -113 93 -172 160 -240 273 -36 59 -42 78 -42
125 0 69 21 99 127 181 43 33 82 69 88 79 6 12 10 186 10 465 l0 445 51 69
c48 64 54 69 91 69 29 1 76 22 200 91 89 50 163 89 164 88 1 -1 -2 -24 -7 -50
-7 -37 -19 -59 -51 -92 -92 -93 -148 -231 -148 -361 0 -127 48 -292 135 -464
18 -36 35 -78 38 -95 2 -16 7 -37 11 -45 4 -10 -11 -36 -43 -74 -61 -72 -83
-136 -83 -236 -1 -90 21 -170 70 -264 48 -91 75 -108 167 -104 99 4 176 45
283 147 96 93 132 157 132 239 0 50 1 52 28 52 44 0 205 37 289 66 105 36 197
83 324 165 58 38 120 74 138 80 18 6 30 17 28 23 -3 7 15 25 39 40 23 15 56
42 73 61 28 32 32 46 57 175 2 14 25 52 50 85 61 81 80 120 93 190 17 91 13
154 -14 245 -14 46 -22 87 -18 90 5 3 52 23 105 44 54 21 113 48 131 60 18 13
58 35 88 49 55 27 207 135 291 207 25 22 64 50 85 62 47 27 126 88 218 166 39
33 71 59 73 58 1 -2 7 -40 12 -84z m2508 -127 c2 -2 2 -29 0 -61 l-3 -59 -22
38 c-12 20 -42 50 -66 65 l-44 28 66 -4 c36 -2 67 -6 69 -7z m-3938 -119 c41
-8 100 -25 130 -39 30 -13 63 -27 74 -30 16 -6 16 -10 5 -24 -10 -11 -14 -46
-14 -112 0 -89 2 -99 27 -131 14 -19 38 -59 53 -88 24 -48 27 -63 23 -141 -3
-87 -3 -87 -54 -156 -67 -91 -80 -117 -94 -195 -15 -79 -33 -110 -63 -110 -12
0 -39 -11 -59 -25 -21 -14 -49 -30 -63 -35 -14 -5 -33 -23 -42 -38 -49 -86
-357 -218 -555 -239 -32 -3 -58 -6 -58 -7 0 -1 7 -23 15 -50 24 -77 19 -99
-10 -51 -38 61 -84 74 -129 36 -16 -14 -17 -25 -12 -88 8 -89 0 -106 -86 -189
-64 -62 -101 -86 -149 -97 -24 -6 -28 -2 -47 41 -60 141 -57 226 12 316 38 51
45 89 22 121 -12 17 -12 22 0 39 16 24 19 72 4 81 -18 11 -11 24 15 31 14 4
24 9 22 13 -34 64 -119 248 -131 284 -24 72 -39 184 -31 235 13 90 118 275
226 399 55 65 177 163 234 189 27 13 76 26 108 30 31 4 57 10 57 14 0 4 37 13
83 19 45 6 96 13 112 15 57 8 300 -3 375 -18z m2804 -32 c159 -31 182 -38 205
-62 42 -44 101 -126 101 -139 0 -6 23 -42 50 -78 59 -78 83 -121 85 -155 1
-14 10 -90 20 -170 30 -252 8 -371 -91 -495 -30 -38 -57 -80 -61 -92 -7 -31
11 -73 49 -108 60 -57 97 -192 79 -291 -16 -82 -45 -128 -105 -160 -45 -26
-61 -29 -143 -29 -85 0 -94 2 -135 30 -56 39 -101 128 -129 255 -27 126 -46
162 -94 178 -35 11 -49 10 -144 -17 -161 -45 -217 -54 -326 -55 -164 -1 -231
30 -338 161 -235 288 -276 566 -128 867 81 165 197 286 273 286 20 0 37 8 50
25 42 54 67 59 266 56 118 -1 198 -7 227 -16 39 -11 47 -11 60 2 8 8 15 24 15
35 0 15 4 18 18 13 9 -4 98 -22 196 -41z m-4664 -404 c6 0 10 -32 10 -72 l0
-72 -41 39 c-39 38 -164 216 -222 317 l-27 47 53 11 c32 6 86 31 133 60 l79
49 3 -190 c1 -115 6 -189 12 -189z m-1940 245 c43 -117 126 -292 179 -379 l42
-68 -5 -107 c-2 -58 -7 -128 -11 -156 -27 -225 -42 -386 -59 -645 -2 -43 -12
-69 -43 -120 -22 -36 -73 -130 -114 -209 -40 -79 -79 -146 -86 -148 -31 -12
-434 103 -462 132 -12 12 -2 30 70 127 116 158 153 204 225 278 35 36 68 77
73 93 6 15 22 109 35 210 14 100 34 241 46 312 29 192 63 587 57 687 -7 130 2
129 53 -7z m7147 -69 c21 -19 76 -57 123 -85 114 -67 185 -117 240 -167 25
-23 61 -48 80 -56 23 -10 49 -35 75 -72 22 -32 49 -59 62 -62 13 -4 23 -10 23
-14 0 -21 -62 -245 -93 -335 -74 -215 -70 -207 -170 -293 -51 -43 -144 -127
-207 -186 -63 -59 -124 -112 -134 -118 -18 -9 -19 -7 -13 31 3 22 18 72 33
111 l28 71 -18 53 c-10 29 -31 73 -46 97 l-27 44 41 60 c80 116 114 288 96
489 -5 59 -12 112 -16 118 -4 6 -10 46 -15 89 -8 83 -39 166 -85 226 -32 42
-24 42 23 -1z m-6440 -868 c73 -55 133 -101 133 -102 0 -1 -13 -1 -29 2 -37 5
-81 -35 -81 -73 0 -17 -12 -37 -31 -55 -29 -26 -33 -38 -50 -147 -12 -76 -18
-160 -17 -238 1 -66 -2 -126 -6 -133 -4 -7 -43 -30 -87 -52 l-79 -40 -5 27
c-9 43 -30 128 -58 233 -14 52 -28 112 -31 132 -4 21 -18 51 -33 68 -24 29
-25 35 -19 103 4 40 11 124 16 187 5 63 14 167 19 230 5 63 13 123 16 132 6
15 25 1 108 -78 56 -53 161 -141 234 -196z m258 -174 c36 -20 65 -37 65 -37 0
-1 -12 -3 -27 -4 -43 -2 -66 -39 -58 -93 9 -64 9 -68 -9 -145 -19 -86 -20
-197 -1 -250 8 -22 15 -52 15 -66 0 -15 12 -81 26 -148 14 -67 23 -132 20
-145 -6 -25 -39 -70 -123 -168 -29 -33 -53 -63 -53 -67 0 -4 -22 -23 -50 -44
l-50 -37 6 32 c3 18 12 62 20 98 14 66 26 138 70 410 14 85 28 218 30 295 3
86 11 154 20 178 19 51 19 193 -1 231 l-15 28 25 -16 c13 -9 54 -32 90 -52z
m5865 -858 c0 -2 -8 -10 -17 -17 -16 -13 -17 -12 -4 4 13 16 21 21 21 13z
m-1030 -576 c0 -5 -5 -10 -10 -10 -6 0 -32 -20 -57 -45 -25 -25 -69 -57 -98
-70 -38 -18 -71 -47 -125 -111 -67 -78 -77 -85 -104 -81 -17 2 -46 0 -65 -5
-38 -11 -124 7 -118 25 4 14 184 112 282 154 86 37 125 71 125 107 0 19 8 24
48 33 63 14 122 15 122 3z m639 -142 c55 -57 85 -97 87 -114 2 -21 -15 -44
-89 -121 -101 -104 -300 -259 -587 -458 -102 -70 -193 -134 -203 -143 -18 -16
-18 -15 -12 20 5 26 -2 66 -24 144 -35 126 -64 306 -56 349 3 17 14 45 26 64
l20 34 49 -76 c26 -41 57 -80 68 -86 32 -17 70 -13 92 9 33 33 26 77 -29 165
-51 83 -52 93 -14 127 18 17 22 14 87 -62 71 -83 101 -100 141 -82 53 24 41
106 -27 192 -33 41 -38 54 -27 61 8 5 19 9 24 9 6 0 26 10 44 23 34 23 35 23
70 5 19 -10 45 -18 57 -18 15 0 30 -12 43 -34 23 -37 39 -46 77 -46 57 0 82
75 48 142 l-16 31 33 -24 c18 -13 71 -63 118 -111z m-2571 53 c78 -10 144 -20
147 -22 11 -11 -9 -46 -37 -64 -40 -26 -50 -55 -32 -90 34 -66 -56 -110 -143
-69 -44 22 -61 48 -84 132 -22 79 -24 132 -6 132 6 -1 76 -9 155 -19z m1317
-41 c-99 -54 -148 -62 -232 -37 l-42 12 42 22 c36 18 189 44 302 51 11 1 -20
-21 -70 -48z m-697 -21 c-2 -6 -8 -10 -13 -10 -5 0 -11 4 -13 10 -2 6 4 11 13
11 9 0 15 -5 13 -11z m189 -67 c75 -43 143 -70 206 -82 32 -7 56 -14 53 -17
-16 -17 -358 -153 -383 -153 -9 0 10 147 24 190 14 44 39 90 48 90 2 0 26 -12
52 -28z m-342 -29 c-4 -10 -16 -160 -26 -333 -9 -173 -21 -344 -24 -380 -4
-36 -8 -74 -9 -86 -5 -46 -16 -45 -76 7 -33 28 -57 55 -55 60 3 4 -4 13 -16
20 -21 11 -21 15 -15 138 8 155 23 285 37 329 14 44 5 76 -26 90 l-25 12 29
57 29 58 78 21 c103 28 108 28 99 7z m3295 -19 c0 -22 -2 -25 -15 -14 -12 10
-13 16 -4 26 16 20 19 18 19 -12z m-2516 -165 c20 -12 36 -24 36 -28 0 -16
-82 -83 -185 -152 -60 -41 -113 -75 -116 -77 -3 -1 -12 32 -19 73 -12 72 -12
78 6 95 14 14 152 76 241 109 1 1 18 -8 37 -20z m-1414 -34 c85 -54 210 -66
283 -28 16 8 30 13 32 11 2 -2 -1 -25 -6 -53 -5 -27 -12 -82 -16 -122 l-8 -72
-50 32 c-28 18 -75 51 -106 74 -30 24 -102 65 -160 92 l-104 49 45 21 c25 11
46 20 48 20 1 1 20 -10 42 -24z m827 -145 c26 0 65 5 86 11 22 6 42 8 45 4 6
-6 23 -117 25 -174 2 -32 -3 -38 -88 -98 -89 -62 -165 -106 -172 -99 -2 2 1
77 7 167 5 90 10 174 10 187 0 19 3 21 19 12 11 -5 41 -10 68 -10z m-3590
-336 c-3 -3 -12 -4 -19 -1 -8 3 -5 6 6 6 11 1 17 -2 13 -5z m1297 -133 c27
-28 78 -69 112 -93 35 -24 64 -48 64 -54 0 -5 -16 -26 -36 -45 l-36 -34 -113
120 c-116 122 -124 138 -72 148 12 2 24 5 27 6 3 0 28 -21 54 -48z m-147 -206
c50 -55 102 -111 116 -124 l26 -24 -29 -36 c-15 -20 -40 -61 -54 -91 -13 -30
-33 -66 -44 -79 l-19 -23 -58 17 c-65 18 -120 45 -238 112 l-77 45 26 31 c62
75 249 277 254 275 3 -2 47 -48 97 -103z m2028 -235 c3 -5 1 -10 -4 -10 -6 0
-11 5 -11 10 0 6 2 10 4 10 3 0 8 -4 11 -10z"/>
<path d="M7238 5229 c-29 -11 -42 -36 -33 -61 11 -27 54 -38 149 -38 67 0 121
-7 192 -25 111 -29 141 -26 150 10 8 33 -6 48 -66 74 -104 45 -318 67 -392 40z"/>
<path d="M5637 3002 c-23 -25 -21 -70 3 -109 22 -36 58 -58 113 -68 l38 -7
-23 -25 c-18 -20 -23 -38 -26 -97 -7 -126 47 -397 100 -499 41 -81 164 -189
271 -237 78 -36 214 -20 272 32 71 62 72 68 71 318 -1 183 -5 237 -19 289 -39
138 -106 224 -200 260 -29 10 -86 35 -127 55 l-75 36 -138 -2 -139 -3 -30 38
c-33 41 -65 48 -91 19z m470 -223 c132 -61 136 -64 165 -111 44 -70 58 -145
65 -350 7 -216 3 -229 -69 -249 -60 -16 -101 -6 -174 42 -116 75 -155 134
-192 290 -42 181 -55 272 -45 321 8 37 7 52 -3 67 -13 18 -12 20 8 24 13 2 53
5 90 6 58 1 77 -4 155 -40z"/>
<path d="M4121 7085 c-28 -29 -51 -61 -51 -70 0 -34 20 -55 53 -55 26 0 43 11
84 53 l52 52 -44 37 -43 37 -51 -54z"/>
<path d="M5463 6286 c-18 -12 -42 -35 -54 -50 -29 -37 -230 -186 -364 -270
-60 -38 -148 -97 -195 -131 -107 -77 -132 -91 -240 -126 -47 -15 -147 -57
-223 -93 -76 -36 -142 -66 -147 -66 -12 0 -40 -41 -40 -57 0 -20 38 -53 61
-53 12 0 97 33 188 74 91 41 203 86 249 101 64 21 109 45 205 113 67 48 165
114 217 146 192 119 379 274 437 363 13 19 13 29 5 48 -15 32 -55 32 -99 1z"/>
<path d="M9943 2515 c-39 -28 -44 -65 -17 -141 14 -38 29 -84 34 -103 5 -19
16 -41 24 -50 15 -14 16 -1 16 147 0 149 -1 162 -18 162 -10 0 -27 -7 -39 -15z"/>
<path d="M7415 14 c-20 -15 -20 -16 4 -12 14 2 26 9 29 16 5 16 -9 15 -33 -4z"/>
<path d="M8438 3 c6 -2 18 -2 25 0 6 3 1 5 -13 5 -14 0 -19 -2 -12 -5z"/>
</g>
</svg>
